<mxfile host="app.diagrams.net" modified="2022-10-19T11:15:06.367Z" agent="5.0 (Macintosh; Intel Mac OS X 10_15_7) AppleWebKit/537.36 (KHTML, like Gecko) Chrome/106.0.0.0 Safari/537.36" etag="PKJ1A6gk3Ebxkc647URE" version="20.4.1" type="github">
  <diagram id="C5RBs43oDa-KdzZeNtuy" name="Page-1">
    <mxGraphModel dx="1687" dy="1757" grid="1" gridSize="10" guides="1" tooltips="1" connect="1" arrows="1" fold="1" page="1" pageScale="1" pageWidth="827" pageHeight="1169" math="0" shadow="0">
      <root>
        <mxCell id="WIyWlLk6GJQsqaUBKTNV-0" />
        <mxCell id="WIyWlLk6GJQsqaUBKTNV-1" parent="WIyWlLk6GJQsqaUBKTNV-0" />
        <mxCell id="GycFM2n5m8iCn8mDB5tr-5" style="edgeStyle=orthogonalEdgeStyle;rounded=0;orthogonalLoop=1;jettySize=auto;html=1;exitX=1;exitY=0.5;exitDx=0;exitDy=0;entryX=0;entryY=0.5;entryDx=0;entryDy=0;" edge="1" parent="WIyWlLk6GJQsqaUBKTNV-1" source="GycFM2n5m8iCn8mDB5tr-0" target="GycFM2n5m8iCn8mDB5tr-1">
          <mxGeometry relative="1" as="geometry" />
        </mxCell>
        <mxCell id="GycFM2n5m8iCn8mDB5tr-12" style="edgeStyle=orthogonalEdgeStyle;rounded=0;orthogonalLoop=1;jettySize=auto;html=1;exitX=0.5;exitY=0;exitDx=0;exitDy=0;" edge="1" parent="WIyWlLk6GJQsqaUBKTNV-1" source="GycFM2n5m8iCn8mDB5tr-0" target="GycFM2n5m8iCn8mDB5tr-2">
          <mxGeometry relative="1" as="geometry" />
        </mxCell>
        <mxCell id="GycFM2n5m8iCn8mDB5tr-13" style="edgeStyle=orthogonalEdgeStyle;rounded=0;orthogonalLoop=1;jettySize=auto;html=1;exitX=0;exitY=0.5;exitDx=0;exitDy=0;entryX=1;entryY=0.5;entryDx=0;entryDy=0;" edge="1" parent="WIyWlLk6GJQsqaUBKTNV-1" source="GycFM2n5m8iCn8mDB5tr-0" target="GycFM2n5m8iCn8mDB5tr-4">
          <mxGeometry relative="1" as="geometry" />
        </mxCell>
        <mxCell id="GycFM2n5m8iCn8mDB5tr-14" style="edgeStyle=orthogonalEdgeStyle;rounded=0;orthogonalLoop=1;jettySize=auto;html=1;exitX=0.5;exitY=1;exitDx=0;exitDy=0;entryX=0.5;entryY=0;entryDx=0;entryDy=0;" edge="1" parent="WIyWlLk6GJQsqaUBKTNV-1" source="GycFM2n5m8iCn8mDB5tr-0" target="GycFM2n5m8iCn8mDB5tr-3">
          <mxGeometry relative="1" as="geometry" />
        </mxCell>
        <mxCell id="GycFM2n5m8iCn8mDB5tr-0" value="理性" style="rounded=1;whiteSpace=wrap;html=1;" vertex="1" parent="WIyWlLk6GJQsqaUBKTNV-1">
          <mxGeometry x="310" y="210" width="160" height="90" as="geometry" />
        </mxCell>
        <mxCell id="GycFM2n5m8iCn8mDB5tr-7" value="" style="edgeStyle=orthogonalEdgeStyle;rounded=0;orthogonalLoop=1;jettySize=auto;html=1;" edge="1" parent="WIyWlLk6GJQsqaUBKTNV-1" source="GycFM2n5m8iCn8mDB5tr-1" target="GycFM2n5m8iCn8mDB5tr-6">
          <mxGeometry relative="1" as="geometry" />
        </mxCell>
        <mxCell id="GycFM2n5m8iCn8mDB5tr-9" value="" style="edgeStyle=orthogonalEdgeStyle;rounded=0;orthogonalLoop=1;jettySize=auto;html=1;" edge="1" parent="WIyWlLk6GJQsqaUBKTNV-1" source="GycFM2n5m8iCn8mDB5tr-1" target="GycFM2n5m8iCn8mDB5tr-8">
          <mxGeometry relative="1" as="geometry" />
        </mxCell>
        <mxCell id="GycFM2n5m8iCn8mDB5tr-11" value="" style="edgeStyle=orthogonalEdgeStyle;rounded=0;orthogonalLoop=1;jettySize=auto;html=1;" edge="1" parent="WIyWlLk6GJQsqaUBKTNV-1" source="GycFM2n5m8iCn8mDB5tr-1" target="GycFM2n5m8iCn8mDB5tr-10">
          <mxGeometry relative="1" as="geometry" />
        </mxCell>
        <mxCell id="GycFM2n5m8iCn8mDB5tr-1" value="感性" style="rounded=1;whiteSpace=wrap;html=1;" vertex="1" parent="WIyWlLk6GJQsqaUBKTNV-1">
          <mxGeometry x="730" y="210" width="160" height="90" as="geometry" />
        </mxCell>
        <mxCell id="GycFM2n5m8iCn8mDB5tr-2" value="神性" style="rounded=1;whiteSpace=wrap;html=1;" vertex="1" parent="WIyWlLk6GJQsqaUBKTNV-1">
          <mxGeometry x="310" y="-130" width="160" height="90" as="geometry" />
        </mxCell>
        <mxCell id="GycFM2n5m8iCn8mDB5tr-3" value="兽性" style="rounded=1;whiteSpace=wrap;html=1;" vertex="1" parent="WIyWlLk6GJQsqaUBKTNV-1">
          <mxGeometry x="310" y="530" width="160" height="90" as="geometry" />
        </mxCell>
        <mxCell id="GycFM2n5m8iCn8mDB5tr-4" value="科学" style="rounded=1;whiteSpace=wrap;html=1;" vertex="1" parent="WIyWlLk6GJQsqaUBKTNV-1">
          <mxGeometry x="-110" y="210" width="160" height="90" as="geometry" />
        </mxCell>
        <mxCell id="GycFM2n5m8iCn8mDB5tr-6" value="情感" style="rounded=1;whiteSpace=wrap;html=1;" vertex="1" parent="WIyWlLk6GJQsqaUBKTNV-1">
          <mxGeometry x="750" y="70" width="120" height="60" as="geometry" />
        </mxCell>
        <mxCell id="GycFM2n5m8iCn8mDB5tr-8" value="感情" style="rounded=1;whiteSpace=wrap;html=1;" vertex="1" parent="WIyWlLk6GJQsqaUBKTNV-1">
          <mxGeometry x="750" y="390" width="120" height="60" as="geometry" />
        </mxCell>
        <mxCell id="GycFM2n5m8iCn8mDB5tr-10" value="经验" style="rounded=1;whiteSpace=wrap;html=1;" vertex="1" parent="WIyWlLk6GJQsqaUBKTNV-1">
          <mxGeometry x="1120" y="210" width="160" height="90" as="geometry" />
        </mxCell>
        <mxCell id="GycFM2n5m8iCn8mDB5tr-16" value="理念" style="rounded=0;whiteSpace=wrap;html=1;" vertex="1" parent="WIyWlLk6GJQsqaUBKTNV-1">
          <mxGeometry x="310" y="-190" width="70" height="40" as="geometry" />
        </mxCell>
        <mxCell id="GycFM2n5m8iCn8mDB5tr-17" value="宗教" style="rounded=0;whiteSpace=wrap;html=1;" vertex="1" parent="WIyWlLk6GJQsqaUBKTNV-1">
          <mxGeometry x="390" y="-190" width="70" height="40" as="geometry" />
        </mxCell>
        <mxCell id="GycFM2n5m8iCn8mDB5tr-18" value="信仰" style="rounded=0;whiteSpace=wrap;html=1;" vertex="1" parent="WIyWlLk6GJQsqaUBKTNV-1">
          <mxGeometry x="480" y="-120" width="70" height="40" as="geometry" />
        </mxCell>
        <mxCell id="GycFM2n5m8iCn8mDB5tr-19" value="命运" style="rounded=0;whiteSpace=wrap;html=1;" vertex="1" parent="WIyWlLk6GJQsqaUBKTNV-1">
          <mxGeometry x="480" y="-70" width="70" height="40" as="geometry" />
        </mxCell>
        <mxCell id="GycFM2n5m8iCn8mDB5tr-20" value="灵感" style="rounded=0;whiteSpace=wrap;html=1;" vertex="1" parent="WIyWlLk6GJQsqaUBKTNV-1">
          <mxGeometry x="230" y="-190" width="70" height="40" as="geometry" />
        </mxCell>
        <mxCell id="GycFM2n5m8iCn8mDB5tr-21" value="直觉" style="rounded=0;whiteSpace=wrap;html=1;" vertex="1" parent="WIyWlLk6GJQsqaUBKTNV-1">
          <mxGeometry x="230" y="-140" width="70" height="40" as="geometry" />
        </mxCell>
        <mxCell id="GycFM2n5m8iCn8mDB5tr-22" value="修炼" style="rounded=0;whiteSpace=wrap;html=1;" vertex="1" parent="WIyWlLk6GJQsqaUBKTNV-1">
          <mxGeometry x="230" y="-90" width="70" height="40" as="geometry" />
        </mxCell>
        <mxCell id="GycFM2n5m8iCn8mDB5tr-23" value="唤醒" style="rounded=0;whiteSpace=wrap;html=1;" vertex="1" parent="WIyWlLk6GJQsqaUBKTNV-1">
          <mxGeometry x="230" y="-40" width="70" height="40" as="geometry" />
        </mxCell>
        <mxCell id="GycFM2n5m8iCn8mDB5tr-25" value="神启" style="rounded=0;whiteSpace=wrap;html=1;" vertex="1" parent="WIyWlLk6GJQsqaUBKTNV-1">
          <mxGeometry x="310" y="-20" width="70" height="40" as="geometry" />
        </mxCell>
        <mxCell id="GycFM2n5m8iCn8mDB5tr-26" value="超越性" style="rounded=0;whiteSpace=wrap;html=1;" vertex="1" parent="WIyWlLk6GJQsqaUBKTNV-1">
          <mxGeometry x="470" y="-190" width="70" height="40" as="geometry" />
        </mxCell>
        <mxCell id="GycFM2n5m8iCn8mDB5tr-27" value="开悟" style="rounded=0;whiteSpace=wrap;html=1;" vertex="1" parent="WIyWlLk6GJQsqaUBKTNV-1">
          <mxGeometry x="400" y="-20" width="70" height="40" as="geometry" />
        </mxCell>
        <mxCell id="GycFM2n5m8iCn8mDB5tr-28" value="领悟" style="rounded=0;whiteSpace=wrap;html=1;" vertex="1" parent="WIyWlLk6GJQsqaUBKTNV-1">
          <mxGeometry x="480" y="-20" width="70" height="40" as="geometry" />
        </mxCell>
      </root>
    </mxGraphModel>
  </diagram>
</mxfile>
